<svg xmlns="http://www.w3.org/2000/svg" width="1591" height="2500" viewBox="123.544 86.723 324.443 402.368"><g fill-rule="evenodd" clip-rule="evenodd"><path fill="#fff" d="M277.418 259.924c17.461-4.733 28.404 17.965 12.985 22.111-17.711 4.761-32.52-16.815-12.985-22.111m75.137 17.299c-10.284.533-14.959-3.75-12.392-14.575 2.093-8.83 6.986-10.674 16.256-8.241 5.691 11.006 1.672 14.913-3.864 22.816m-121.718-52.264c5.139 13.223-3.969 30.633-14.987 20.534-5.621-5.153-3.842-27.956 14.987-20.534m-33.991-77.962c3.435 1.798 4.273-.254 8.247 2.394-1.286 6.965-9.823 10.322-19.725 26.102-3.97 6.326-13.453 24.591-11.986 34.92 7.13 2.301 13.616 2.004 15.14 8.414-6.882 4.672-10.22-2.925-16.219.269-2.565 4.467-1.308 14.064 1.178 17.711 6.591 3.394 9.53-1.431 12.036 5.712-3.588 2.343-5.536 1.757-11.243 2.131 1.388 7.585 3.719 12.394 6.803 17.566 9.109 2.328 18.1-2.349 21.873 9.926 1.808 5.883.081 8.001 4.169 12.433 2.049 2.222 7.06 5.939 10.036 7.955 12.248 8.301 32.972 15.511 49.111 19.97 36.267 10.02 88.408 17.061 115.804-6.648l-1.252-1.514c-4.026-5.563-2.61.047-3.145-7.186l12.867 1.783c3.849-5.06 6.231-7 9.396-13.802-.18-.268-.565-.928-.671-.696l-2.995-2.476c-2.692-2.48-1.956.986-3.249-5.264 4.308-1.175 16.479 5.322 15.998-17.16-14.42-3.559-14.904 3.575-16.285-6.939l18.916-2.25c.849-11.709.466-20.828-2.615-31.056-3.089-10.251 1.381-16.162 3.98-27.473 2.326-10.119 4.435-20.29 4.733-30.984.424-15.2 1.057-21.412-14.227-22.734 2.898 17.589-2.899 20.696-12.813 28.237 5.256 8.111 17.738 23.803 5.417 36.195-15.071 15.156-35.963-2.798-38.987-4.574-3.878 4.483-11.724 23.088-29.984 19.191-15-3.202-15.319-16.439-14.536-32.412-35.753-4.021-37.26-30.824-19.733-41.211 7.164-4.246 17.67-2.493 22.286-4.816-13.138-9.52-51.411-5.283-59.22-12.039-9.578-8.286-36.418-28.793-47.751-16.719-7.262 7.736-13.586 22.243-11.354 37.044"/><path fill="#060606" d="M326.756 437.102c-5.198 51.989-71.51 35.542-83.207 22.377-7.303-8.22-4.131-26.022 1.702-34.756 11.537 1.306 25.964 5.761 39.188 7.711 14.097 2.078 28.033 3.828 42.317 4.668M206.401 349.51c30.055-9.162 58.281 23.998 31.138 67.436-4.337 6.94-12.966 13.615-23.418 16.513-50.12 13.899-57.337-68.822-7.72-83.949m133.089 41.677c-2.811-15.774-2.599-15.652 4.99-24.761 5.093-6.113 9.892-12.491 14.58-17.033 6.491 8.645 9.87-1.361 18.47 8.949 1.425 7.436-.374 4.696-.762 9.917-.328 4.408.613 3.765 1.046 8.214 1.581 16.246-15.886 24.892-38.324 14.714m11.146-46.657c-4.144 6.462-9.324 10.739-13.596 16.389l-5.424-26.058c6.392.946 15.18 4.566 19.02 9.669m-150.383-3.073c6.973-11.797 17.422-22.627 24.546-33.04l13.887 5.722c.528 23.785 3.026 38.059 26.527 42.177 22.637 3.967 33.032-11.73 39.888-26.43 2.763.049 5.635.156 8.162.396 1.608.153 3.347.355 4.905.732 3.919.947 1.692.292 3.211 1.217 9.397 18.751 8.882 73.186 7.091 95.921-28.179-.734-53.567-5.905-79.014-11.701 7.365-20.278 13.346-36.747 1.065-57.833-14.76-25.343-34.555-19.12-50.268-17.161m94.916-13.394c-1.766 12.844-13.503 24.419-29.78 21.148-15.505-3.116-20.562-14.027-18.259-31.926Zm-119.249-2.872c1.623-3.284 21.275-20.959 29.012-30.567 3.953 1.474 9.494 6.343 12.144 8.545-.747 1.449-23.859 31.157-25.697 32.896-6.113-1.961-12.361-7.425-15.459-10.874m-8.024-7.416c-22.297-16.719-17.303-48.108 6.496-45.875 10.65.999 5.061-.637 11.909-1.571 12.047-1.644 6.234 12.144 11.127 18.111-8.338 9.505-19.08 22.291-29.532 29.335m28.95-170.778c-2.232-14.801 4.092-29.308 11.356-37.047 11.333-12.074 38.174 8.433 47.751 16.719 7.81 6.756 46.083 2.519 59.22 12.039-4.616 2.323-15.122.57-22.286 4.816-17.527 10.387-16.02 37.19 19.733 41.211-.784 15.973-.464 29.21 14.536 32.412 18.259 3.897 26.106-14.708 29.984-19.191 3.024 1.776 23.916 19.73 38.987 4.574 12.322-12.392-.161-28.084-5.417-36.195 9.914-7.542 15.711-10.648 12.813-28.237 15.284 1.322 14.651 7.534 14.227 22.734-.298 10.694-2.408 20.865-4.733 30.984-2.599 11.312-7.069 17.222-3.98 27.473 3.081 10.229 3.464 19.347 2.615 31.056l-18.916 2.25c1.381 10.514 1.864 3.38 16.285 6.939.48 22.483-11.691 15.985-15.998 17.16 1.294 6.251.557 2.784 3.249 5.264l2.995 2.476c.105-.231.491.429.671.696-3.165 6.802-5.547 8.742-9.396 13.802l-12.867-1.783c.536 7.232-.881 1.623 3.145 7.186l1.252 1.514c-27.396 23.709-79.537 16.668-115.804 6.648-16.139-4.46-36.863-11.67-49.111-19.97-2.976-2.016-7.987-5.733-10.036-7.955-4.088-4.432-2.361-6.55-4.169-12.433-3.773-12.276-12.764-7.598-21.873-9.926-3.083-5.172-5.415-9.981-6.803-17.566 5.707-.374 7.654.212 11.243-2.131-2.506-7.143-5.445-2.318-12.036-5.712-2.487-3.647-3.743-13.244-1.178-17.711 5.999-3.194 9.337 4.403 16.219-.269-1.524-6.411-8.01-6.113-15.14-8.414-1.466-10.329 8.016-28.594 11.986-34.92 9.901-15.78 18.438-19.137 19.725-26.102-3.976-2.645-4.814-.593-8.249-2.391m181.146 17.957c.989 1.703 26.744 22.539 11.116 33.345-15.616 10.798-29.339-11.049-35.355-13.082-4.128 4.961-6.721 25.694-22.743 25.009-13.185-.565-12.552-14.653-10.434-23.967 3.482-15.31-8.951-6.369-21.016-12.1-17.26-8.199-9.834-23.375 2.965-26.553 7.169-1.78 20.056 1.213 20.712-.142.189-.391.74-.108 1.084-.246 1.602-5.965-10.319-32.707 8.241-36.14 17.873-3.306 19.647 16.137 22.716 29.443 8.928-1.543 28.11-16.864 38.853-2.902 11.954 15.536-9.441 21.403-16.139 27.335m42.735 87.273c.071-8.799.274-16.997-.875-25.587-1.312-9.806-4.046-12.02-1.494-21.187 3.669-13.179 7.351-30.179 8.189-44.616 1.387-23.896-1.467-31.632-19.912-32.591-23.22-1.207-13.233-2.541-23.249-3.65-9.504-1.052-14.927 2.462-22.556 4.788-5.122-32.291-38.193-33.549-45.04-11.339l-2.366 7.669c-.072-.202-.285.741-.485 1.082-10.373-2.204-20.796-5.334-31.719-6.273-20.241-1.74-13.932 1.668-27.883-7.895-12.284-8.421-36.473-25.905-50.574-10.879-22.946 24.453-13.182 47.591-16.56 56.728-.914 2.471-5.999 7.651-8.206 11.044-10.868 16.711-10.056 19.927-15.739 38.015-5.223-.096-19.979-1.935-24.45-.824-7.458 1.852-2.994-.155-4.833 3.829 1.669 1.804.079.68 2.578 1.908 3.546 1.742 17.417 2.012 25.489 3.748l.693 21.328c-10.088 1.586-14.457-.396-18.886 4.787l21.04 4.391 4.977 13.566c-3.232 2.893-7.476 2.356-12.461 6.415-32.861 26.755 8.151 68.451 30.952 77.534-5.71 13.545-14.114 16.387-19.923 31.652-10.093 26.524-1.672 59.411 26.498 66.904 18.208 4.844 26.641-2.544 38.696-8.038-4.596 22.303-1.704 31.013 15.895 39.129 14.296 6.594 33.946 10.406 51.281 6.661 34.462-7.448 38.097-41.046 39.919-78.901 12.352 2.854 21.51 5.982 33.687-.745 9.65-5.331 14.236-13.442 12.982-27.904-.648-7.47 2.749-10.96-.501-18.488-5.557-12.873-13.294-5.119-25.945-15.482-4.66-3.817-7.794-5.185-12.563-8.289 6.817-3.357 17.807-4.42 25.566-7.678 8.297-3.484 13.541-9.071 20.455-11.414 2.914 2.208 19.857 15.325 23.258 12.427 1.292-2.183 2.152 3.293.788-3.947-1.087-5.774-12.93-8.189-18.471-16.856 3.34-4.561 7.317-11.11 12.036-14.904 8.492 1.404 15.014 5.851 23.768 5.372-1.197-6.019-3.164-5.898-9.683-8.873-4.046-1.847-8.114-3.585-11.24-5.499l4.69-18.395c9.862.068 22.071 5.677 29.437 3.307-1.14-9.084-19.42-10.012-27.26-12.03"/><path fill="#f3b6ca" d="M200.253 341.457c15.713-1.96 35.507-8.183 50.268 17.16 12.281 21.086 6.3 37.555-1.065 57.833 25.447 5.796 50.834 10.968 79.014 11.701 1.792-22.735 2.306-77.169-7.091-95.921-1.519-.926.707-.27-3.211-1.217-1.558-.377-3.297-.579-4.905-.732-2.526-.24-5.399-.347-8.162-.396-6.856 14.7-17.251 30.397-39.888 26.43-23.501-4.118-25.999-18.392-26.527-42.177l-13.887-5.722c-7.123 10.415-17.573 21.244-24.546 33.041"/><path fill="#e9488a" d="M358.762 166.336c-6.361 15.192-32.262 7.528-25.746-10.172 6.162-16.738 32.612-6.23 25.746 10.172m-34.442-19.119c-.344.138-.895-.145-1.084.246-.656 1.355-13.544-1.638-20.712.142-12.798 3.178-20.224 18.355-2.965 26.553 12.065 5.731 24.498-3.21 21.016 12.1-2.118 9.314-2.751 23.402 10.434 23.967 16.022.686 18.615-20.047 22.743-25.009 6.016 2.033 19.739 23.88 35.355 13.082 15.628-10.806-10.127-31.642-11.116-33.345 6.698-5.933 28.092-11.799 16.138-27.336-10.742-13.962-29.924 1.359-38.853 2.902-3.068-13.306-4.843-32.749-22.716-29.443-18.558 3.434-6.638 30.176-8.24 36.141"/><path fill="#fff" d="M206.401 349.51c-49.617 15.126-42.4 97.847 7.719 83.948 10.452-2.898 19.081-9.572 23.418-16.513 27.143-43.437-1.082-76.597-31.137-67.435m120.355 87.592c-14.285-.84-28.221-2.59-42.317-4.669-13.224-1.95-27.652-6.405-39.188-7.711-5.833 8.734-9.005 26.537-1.702 34.756 11.697 13.166 78.009 29.613 83.207-22.376m-158.86-119.327c10.452-7.044 21.194-19.83 29.532-29.335-4.893-5.967.92-19.755-11.127-18.111-6.848.934-1.258 2.57-11.909 1.571-23.8-2.233-28.793 29.156-6.496 45.875m171.594 73.412c22.437 10.178 39.904 1.531 38.324-14.713-.432-4.449-1.373-3.807-1.046-8.214.388-5.22 2.187-2.481.762-9.917-8.6-10.31-11.979-.304-18.47-8.949-4.688 4.542-9.486 10.92-14.58 17.033-7.589 9.108-7.801 8.986-4.99 24.76"/><path fill="#e9488a" d="m295.169 328.063-48.039-10.778c-2.303 17.899 2.754 28.81 18.259 31.926 16.277 3.271 28.014-8.304 29.78-21.148m-119.249-2.872c3.098 3.449 9.345 8.914 15.459 10.874 1.839-1.739 24.95-31.447 25.697-32.896-2.649-2.202-8.191-7.071-12.144-8.545-7.737 9.608-27.389 27.283-29.012 30.567"/><path fill="#060606" d="M230.837 224.959c-18.829-7.422-20.608 15.381-14.987 20.534 11.018 10.098 20.126-7.311 14.987-20.534m122.535-68.97c1.959 9.807-.262 15.224-13.18 11.961-1.871-3.805-3.439-8.815.463-12.608 4.553-4.427 9.904-.795 12.717.647m5.39 10.347c6.866-16.402-19.583-26.91-25.746-10.172-6.517 17.699 19.385 25.364 25.746 10.172m-6.207 110.887c5.536-7.903 9.555-11.81 3.864-22.816-9.269-2.433-14.162-.588-16.256 8.241-2.567 10.824 2.108 15.108 12.392 14.575m-79.32-7.286c4.415-9.465 19.2-5.587 18.34 5.027-3.137 2.564-4.941 3.755-10.639 2.123-7.278-2.085-5.109-3.484-7.701-7.15m4.183-10.013c-19.535 5.296-4.726 26.873 12.985 22.111 15.419-4.147 4.476-26.845-12.985-22.111"/><path fill="#e9488a" d="M337.04 360.919c4.273-5.65 9.453-9.927 13.596-16.389-3.84-5.102-12.628-8.722-19.02-9.669Z"/><path fill="#f6b21a" d="M353.372 155.989c-2.813-1.442-8.164-5.075-12.717-.647-3.902 3.793-2.334 8.803-.463 12.608 12.918 3.263 15.139-2.154 13.18-11.961m-80.137 113.948c2.592 3.666.422 5.065 7.701 7.15 5.699 1.632 7.502.441 10.639-2.123.86-10.615-13.925-14.493-18.34-5.027"/></g></svg>