<svg xmlns="http://www.w3.org/2000/svg" id="Layer_2" data-name="Layer 2" viewBox="0 0 425.52 550.05"><defs><style>.cls-1{fill-rule:evenodd}.cls-1,.cls-3,.cls-4,.cls-5,.cls-7,.cls-8,.cls-9{stroke-width:0}.cls-1,.cls-4{fill:#282829}.cls-9{fill:#fefefe}.cls-5{fill:#353535}.cls-7{fill:#ff78b9}.cls-8{fill:#fff}</style></defs><g id="katman_1" data-name="katman 1"><path d="M215.81 405.71h.01Z" class="cls-3"/><path d="M420.56 40.17c-3.06-3.06-7.3-4.96-11.97-4.96s-8.91 1.9-11.97 4.96-4.96 7.3-4.96 11.97c0 3.89 1.32 7.48 3.53 10.34-40.83 20.09-82.49 41.37-123.2 61.32-.71.35-1.16 1.08-1.15 1.87.05 8.21.09 17.35.13 25.99-17.98-6.02-37.52-9.34-57.84-9.35-20.67 0-40.47 3.79-58.57 10.6.04-7.25.08-14.68.11-21.46 0-.79-.45-1.52-1.16-1.86-40.71-19.95-82.37-41.23-123.2-61.32 2.21-2.86 3.53-6.45 3.53-10.34 0-4.67-1.9-8.91-4.96-11.97S21.58 41 16.91 41 8 42.9 4.94 45.96A16.96 16.96 0 0 0 0 57.93c0 4.67 1.9 8.91 4.96 11.97s7.3 4.96 11.97 4.96c1.9 0 3.73-.32 5.45-.9 5.16 48.27 10.62 95.57 15.74 143.9.1.92.8 1.67 1.72 1.82 10.92 1.79 21.84 3.58 32.76 5.38-.15.3-.31.61-.45.91-7.84 16.27-12.19 34.1-12.19 52.68 0 .94.01 1.87.03 2.82.43 18.47 4.93 34.56 12.75 48.24 5.87 10.26 13.6 19.16 22.85 26.73 8.34 6.82 17.92 12.54 28.48 17.23l-28.56 22.18c-.11-.12-.22-.23-.33-.35-2.6-2.6-6.2-4.21-10.17-4.21-3.96 0-7.57 1.61-10.17 4.21s-4.21 6.2-4.21 10.17 1.61 7.57 4.21 10.17 6.2 4.21 10.17 4.21c3.96 0 7.57-1.61 10.17-4.21 2.6-2.59 4.21-6.2 4.21-10.17q0-.615-.06-1.23l24.1.14c-2.17 2.18-4.19 4.53-5.94 7.12-1.66 2.46-3.05 5.15-4.03 7.98-.98 2.84-1.56 5.83-1.56 8.89 0 .39 0 .77.03 1.16.12 2.43.65 4.85 1.55 7.11-1.78 1-3.36 2.38-4.56 4.1-1.83 2.65-2.65 5.77-2.65 8.87 0 3.21.87 6.42 2.51 9.19 1.59 2.69 3.78 4.91 6.29 6.64s5.33 2.99 8.23 3.77c2.51.67 5.1 1 7.68 1 2.87 0 5.73-.41 8.49-1.19.77 3.76 1.76 7.47 2.98 11.12a31.2 31.2 0 0 0-1.97 10.91c0 3.5.59 6.99 1.8 10.3-.9.45-1.77.97-2.59 1.57-2.15 1.57-4.06 3.58-5.67 5.74s-2.93 4.46-3.86 6.65a22.5 22.5 0 0 0-1.77 8.78c0 3.44.77 6.88 2.31 9.99a23.8 23.8 0 0 0 5.36 7.08c3.2 2.9 7.04 4.84 11.07 6.14 4.04 1.3 8.28 1.95 12.37 2.23 2.79.19 5.87.33 9.09.33 6.95 0 14.57-.62 21.55-2.67 3.49-1.03 6.83-2.42 9.82-4.3 3-1.88 5.65-4.26 7.74-7.23 1.61-2.3 2.64-4.65 3.24-7 .61-2.35.8-4.69.8-6.99 0-3.7-.48-7.35-.64-11.03-.02-.38-.03-.76-.03-1.15 0-2.04.26-4.13.85-5.95.34-1.06.8-2.03 1.36-2.87.56.84 1.01 1.8 1.36 2.87.59 1.82.85 3.9.85 5.95 0 .39 0 .77-.03 1.15-.16 3.69-.64 7.33-.64 11.03 0 2.31.19 4.64.8 6.99.6 2.35 1.63 4.7 3.24 7 2.08 2.97 4.74 5.35 7.74 7.23 4.5 2.82 9.75 4.55 15.16 5.59 5.42 1.04 11.01 1.38 16.22 1.39 3.22 0 6.3-.13 9.09-.33 5.45-.37 11.18-1.41 16.32-3.75 2.57-1.18 4.99-2.69 7.12-4.62a23.8 23.8 0 0 0 5.36-7.08c1.54-3.11 2.31-6.55 2.31-9.99 0-3-.58-6-1.77-8.78-1.25-2.92-3.17-6.04-5.57-8.75-1.2-1.35-2.53-2.6-3.96-3.64-.82-.6-1.69-1.12-2.59-1.57.05-.13.09-.26.14-.38 7.71 3.79 16.29 5.74 24.87 5.74 4.72 0 9.44-.59 14.01-1.79 6.78-1.77 13.34-4.67 19.16-8.63 5.16-3.51 9.74-7.87 13.34-13.01 1.17.96 2.47 1.98 3.8 3.01 2.08 1.61 4.22 3.23 5.93 4.62.64.52 1.52.61 2.25.23a2.04 2.04 0 0 0 1.11-1.96c-.85-13.36-2.7-24.83-4.72-38.67a2.067 2.067 0 0 0-2.21-1.76c-11.84.99-24.84 1.88-36.73 2.87-.77.06-1.44.56-1.74 1.27-.29.71-.17 1.53.33 2.12 1.76 2.07 3.61 3.89 5.42 5.66 1.52 1.49 3.01 2.96 4.39 4.51-.76 2.07-1.86 4.23-3.22 6.34-2.4 3.73-5.61 7.35-9.14 10.27-3.53 2.93-7.37 5.15-10.95 6.19-3.02.88-6.02 1.35-8.89 1.35-3.31 0-6.44-.61-9.29-1.91-2.82-1.28-5.38-3.23-7.59-6-.14-.42-.28-.84-.44-1.26 1.22-3.64 2.21-7.36 2.98-11.12 2.76.78 5.62 1.19 8.49 1.19 2.58 0 5.17-.33 7.68-1 2.9-.78 5.73-2.04 8.24-3.77s4.7-3.95 6.29-6.64c1.63-2.77 2.5-5.98 2.51-9.19 0-3.1-.82-6.22-2.65-8.87-1.19-1.72-2.77-3.1-4.56-4.1a22.3 22.3 0 0 0 1.58-8.27c0-3.05-.58-6.05-1.56-8.88-.98-2.84-2.38-5.53-4.03-7.98-1.48-2.19-3.15-4.2-4.94-6.09l14.59.51c.41 3.25 1.9 6.18 4.1 8.37 2.6 2.6 6.2 4.21 10.17 4.21s7.57-1.61 10.17-4.21 4.21-6.2 4.21-10.17c0-3.96-1.61-7.57-4.21-10.17-2.59-2.6-6.2-4.21-10.17-4.21-3.96 0-7.57 1.61-10.17 4.21-.8.8-1.51 1.7-2.11 2.67l-24.72-21.05c8.8-3.47 16.8-7.56 24.01-12.22 16.24-10.5 28.44-23.93 36.58-39.72s12.22-33.93 12.35-53.84v-.65c0-17.41-4.49-34.09-12.52-49.28-.23-.43-.46-.85-.69-1.28l29.97-4.92c.92-.15 1.62-.9 1.72-1.82 5.12-48.32 10.58-95.63 15.74-143.9 1.71.58 3.54.9 5.45.9 4.67 0 8.91-1.9 11.97-4.96s4.96-7.3 4.96-11.97-1.9-8.91-4.96-11.97M92.25 412.91c-1.86 1.86-4.41 3-7.25 3s-5.39-1.14-7.25-3-3-4.41-3-7.25 1.14-5.39 3-7.25 4.41-3 7.25-3 5.39 1.14 7.25 3 3 4.41 3 7.25-1.14 5.39-3 7.25m193.72 75.78c1.42 1.06 2.91 1.95 4.47 2.66 3.44 1.56 7.18 2.27 10.99 2.27 3.32 0 6.7-.53 10.05-1.51 2.87-.84 5.72-2.24 8.45-4.02 4.09-2.68 7.91-6.22 11.06-10.14s5.63-8.2 6.96-12.45c.21-.68.06-1.41-.39-1.95-1.76-2.07-3.61-3.89-5.42-5.66-.8-.78-1.58-1.55-2.34-2.33 10.02-.8 20.63-1.56 30.58-2.37 1.67 11.39 3.18 21.15 4.06 31.78-.77-.59-1.55-1.19-2.31-1.78-2.06-1.59-4.03-3.14-5.36-4.35-.45-.41-1.06-.6-1.67-.51-.61.08-1.14.43-1.47.95-3.43 5.48-8.09 10.1-13.49 13.77s-11.54 6.39-17.88 8.05c-4.22 1.11-8.59 1.65-12.97 1.65-8.23 0-16.46-1.94-23.77-5.68.37-1.93.57-3.89.57-5.85 0-.85-.04-1.7-.11-2.55Zm39.77-91.61c1.86-1.86 4.41-3 7.25-3s5.39 1.14 7.25 3 3 4.41 3 7.25-1.14 5.39-3 7.25-4.41 3-7.25 3-5.39-1.14-7.25-3-3-4.41-3-7.25 1.14-5.39 3-7.25M16.93 70.74c-3.54 0-6.73-1.43-9.05-3.75a12.74 12.74 0 0 1-3.75-9.05c0-3.54 1.43-6.73 3.75-9.05a12.74 12.74 0 0 1 9.05-3.75c3.54 0 6.73 1.43 9.05 3.75a12.74 12.74 0 0 1 3.75 9.05c0 3.54-1.43 6.73-3.75 9.05a12.74 12.74 0 0 1-9.05 3.75m25.12 145.13c-5.13-48.31-10.59-95.59-15.74-143.84.32-.21.63-.43.93-.67 40.81 20.06 82.5 41.37 123.31 61.37-.04 6.95-.07 14.49-.11 21.8-16.9 6.89-32.21 16.46-45.23 28.06-12.54 11.17-22.95 24.23-30.63 38.61-10.84-1.78-21.67-3.56-32.52-5.34Zm263.6 198.14c1.48 2.19 2.7 4.57 3.55 7.03s1.33 5 1.33 7.53c0 .32 0 .64-.02.96a18 18 0 0 1-1.98 7.36c-1.28 2.47-3.13 4.55-5.43 5.91a2.07 2.07 0 0 0-.73 2.83 2.07 2.07 0 0 0 2.83.73c2.47-1.46 4.47-3.5 5.98-5.84 1.22.71 2.29 1.66 3.06 2.78 1.29 1.86 1.92 4.15 1.92 6.53 0 2.45-.68 4.98-1.93 7.09s-3 3.9-5.08 5.34-4.48 2.51-6.96 3.18c-2.15.58-4.37.86-6.61.86-2.61 0-5.23-.39-7.74-1.15.83-5.16 1.25-10.38 1.25-15.6 0-11.36-1.97-22.71-5.94-33.38a2.06 2.06 0 0 0-2.65-1.21c-1.07.4-1.61 1.59-1.21 2.65 3.79 10.18 5.68 21.06 5.68 31.94 0 13.49-2.9 26.98-8.63 39.17-.49 1.03-.04 2.26.99 2.75s2.26.04 2.74-.99c.54-1.15 1.05-2.32 1.54-3.49.23 1.41.34 2.84.34 4.27 0 3.65-.74 7.28-2.23 10.57-.24.54-.24 1.16 0 1.69.24.54.7.95 1.27 1.12 1.13.35 2.31.98 3.46 1.81 1.72 1.25 3.38 2.98 4.79 4.87s2.58 3.94 3.37 5.8c.96 2.24 1.44 4.7 1.44 7.16 0 2.83-.64 5.65-1.88 8.16a19.7 19.7 0 0 1-4.43 5.86c-2.66 2.41-5.95 4.11-9.57 5.27-3.61 1.16-7.54 1.78-11.39 2.04-2.72.19-5.7.32-8.81.32-6.7 0-13.98-.61-20.39-2.5-3.21-.94-6.19-2.2-8.79-3.84s-4.82-3.64-6.55-6.11c-1.33-1.9-2.13-3.76-2.63-5.67-.49-1.91-.67-3.88-.67-5.96 0-3.34.46-6.94.64-10.84.02-.44.03-.89.03-1.34 0-2.39-.29-4.87-1.05-7.21-.75-2.34-1.99-4.57-3.91-6.28-.02-.02-.05-.03-.07-.05-.06-.05-.12-.09-.18-.13s-.11-.07-.17-.1-.12-.06-.19-.09c-.06-.02-.12-.05-.19-.07-.06-.02-.13-.03-.19-.05l-.2-.03h-.4c-.07 0-.13.02-.2.03-.06.01-.13.03-.19.05s-.13.04-.19.07-.13.05-.19.09c-.06.03-.11.06-.17.1s-.12.08-.18.13c-.02.02-.05.03-.07.05-1.92 1.71-3.16 3.94-3.91 6.28-.76 2.34-1.05 4.83-1.05 7.21 0 .45.01.9.03 1.34.18 3.9.64 7.51.64 10.84 0 2.08-.17 4.05-.67 5.96-.49 1.91-1.3 3.77-2.63 5.67-1.73 2.47-3.95 4.47-6.55 6.11-3.9 2.45-8.67 4.06-13.74 5.03s-10.41 1.31-15.44 1.31c-3.11 0-6.09-.13-8.81-.32-5.13-.35-10.4-1.33-14.89-3.39-2.25-1.03-4.3-2.32-6.07-3.92-1.77-1.61-3.28-3.52-4.43-5.86-1.25-2.51-1.88-5.33-1.88-8.16 0-2.46.48-4.92 1.44-7.16 1.05-2.48 2.79-5.3 4.86-7.63 1.04-1.17 2.16-2.21 3.31-3.05s2.32-1.46 3.46-1.81c.56-.17 1.03-.59 1.27-1.12.24-.54.24-1.16 0-1.69-1.49-3.29-2.23-6.92-2.23-10.57 0-1.43.12-2.86.34-4.28.49 1.17 1 2.34 1.54 3.49a2.073 2.073 0 0 0 2.75.99 2.07 2.07 0 0 0 .99-2.75c-5.73-12.19-8.63-25.68-8.63-39.17 0-10.88 1.89-21.76 5.68-31.94.4-1.07-.15-2.26-1.21-2.65a2.05 2.05 0 0 0-2.65 1.21c-3.97 10.66-5.94 22.02-5.94 33.38 0 5.22.42 10.44 1.25 15.6-2.51.75-5.12 1.15-7.74 1.15-2.23 0-4.46-.28-6.61-.86-2.48-.67-4.88-1.74-6.96-3.18s-3.84-3.23-5.08-5.34a14 14 0 0 1-1.93-7.09c0-2.38.63-4.67 1.92-6.53.77-1.12 1.84-2.07 3.05-2.78 1.52 2.34 3.51 4.38 5.98 5.84.98.58 2.25.26 2.83-.73.58-.98.26-2.25-.73-2.83-2.3-1.36-4.15-3.44-5.43-5.91a18 18 0 0 1-1.98-7.36c-.02-.32-.02-.65-.02-.97 0-2.53.48-5.07 1.33-7.54.85-2.46 2.08-4.84 3.55-7.03 2.33-3.46 5.28-6.53 8.5-9.39l18.02.11 7.78 22.75c-2.36.68-4.47 1.95-6.15 3.64-2.6 2.6-4.21 6.2-4.21 10.17 0 3.96 1.61 7.57 4.21 10.17s6.2 4.21 10.17 4.21c3.96 0 7.57-1.61 10.17-4.21s4.21-6.2 4.21-10.17c0-3.56-1.3-6.83-3.44-9.33 4.68-2.36 15.58-7.86 25.58-12.82 5.13-2.54 10.02-4.94 13.7-6.7 1.84-.88 3.38-1.6 4.49-2.09.4-.18.75-.33 1.02-.44.39.22.93.52 1.59.9 3.46 1.98 10.24 5.95 17.37 10.13 5.96 3.5 12.16 7.15 16.91 9.96-.08.08-.16.15-.24.23-2.6 2.6-4.21 6.2-4.21 10.17 0 3.96 1.61 7.57 4.21 10.17s6.2 4.21 10.17 4.21c3.96 0 7.57-1.61 10.17-4.21s4.21-6.2 4.21-10.17-1.61-7.57-4.21-10.17a14.35 14.35 0 0 0-6.65-3.78l6.98-22.88 26.77.94c2.88 2.64 5.52 5.46 7.63 8.61Zm-146.42 17.02c2.84 0 5.39 1.14 7.25 3s3 4.41 3 7.25-1.14 5.39-3 7.25-4.41 3-7.25 3-5.39-1.14-7.25-3-3-4.41-3-7.25 1.14-5.39 3-7.25 4.41-3 7.25-3m94.28 3c1.86-1.86 4.41-3 7.25-3s5.39 1.14 7.25 3 3 4.41 3 7.25-1.14 5.39-3 7.25-4.41 3-7.25 3-5.39-1.14-7.25-3-3-4.41-3-7.25 1.14-5.39 3-7.25m65.53-33.2q-.15.57-.24 1.17l-48.99-1.73c-.93-.03-1.77.57-2.05 1.46l-7.68 25.19c-1.97.09-3.84.58-5.52 1.38-5.98-3.53-15.02-8.86-22.84-13.45-4.13-2.42-7.92-4.64-10.73-6.26-1.4-.81-2.56-1.48-3.4-1.95q-.63-.36-1.02-.57c-.13-.07-.24-.13-.34-.18-.05-.03-.1-.05-.16-.08s-.11-.05-.27-.11c-.34-.11-.54-.11-.69-.11-.17 0-.28.02-.37.03-.18.03-.29.06-.4.09-.21.06-.4.13-.62.22-.42.16-.95.39-1.6.68-2.41 1.08-6.47 3.03-11.25 5.37-12.63 6.19-30.17 15.06-34.12 17.06a14.24 14.24 0 0 0-7.4-2.13l-8.52-24.9a2.07 2.07 0 0 0-1.94-1.4l-20.28-.12-30.3-.18c-.15-.36-.31-.72-.48-1.07l30.54-23.72c5.71 2.32 11.69 4.36 17.91 6.1 6.61 1.86 13.48 3.38 20.57 4.6.08.01.16.03.24.04.44.08.87.15 1.3.22h.04c13.47 2.22 27.73 3.31 42.51 3.31 1.31 0 2.62 0 3.93-.03 24.58-.32 46.17-3.26 64.84-8.53h.04c.02 0 .05-.01.07-.02.76-.22 1.53-.43 2.29-.65 3.23-.96 6.37-2 9.43-3.1L319 400.83Zm-14.42-37.77c-7.29 6.69-16.21 11.1-25.91 14.19-18.27 5.17-39.53 8.08-63.84 8.4-1.3.02-2.59.03-3.88.03-14.91 0-29.25-1.13-42.73-3.4-.13-.02-.27-.04-.4-.07h-.01c-8.55-1.49-17.01-3.49-24.84-6.52s-15.01-7.07-21.08-12.62c-5.56-5.09-9.79-11.38-12.64-18.28-2.84-6.9-4.3-14.41-4.3-21.93 0-7.6 1.49-15.2 4.49-22.16 4.05-9.4 10.9-18.07 19.33-25.03 8.43-6.97 18.43-12.22 28.72-14.85 1.37-.35 2.77-.52 4.17-.52 2.27 0 4.54.46 6.66 1.36l44.1 18.75h.02c.08.04.17.06.26.08.04.01.09.03.13.04.08.01.16.02.23.02.06 0 .11.02.16.02s.11-.01.16-.01c.08 0 .16 0 .24-.02.04 0 .09-.03.13-.04.09-.02.18-.05.26-.08h.02l44.1-18.75c2.12-.9 4.39-1.36 6.66-1.36 1.4 0 2.8.17 4.16.52 10.29 2.63 20.29 7.88 28.72 14.85 8.43 6.96 15.28 15.64 19.33 25.03 3 6.97 4.49 14.56 4.49 22.16 0 7.51-1.45 15.03-4.29 21.93-2.85 6.9-7.08 13.19-12.64 18.28Zm60.18-93.7v.62h2.06-2.06c-.11 17.22-3.25 32.93-9.43 46.85-4.63 10.44-10.98 19.87-19.07 28.18-7.91 8.13-17.52 15.18-28.84 21.04 6.01-5.52 10.56-12.3 13.61-19.7 3.06-7.42 4.61-15.46 4.61-23.5s-1.59-16.28-4.83-23.8c-4.36-10.1-11.62-19.25-20.49-26.58-8.88-7.33-19.39-12.86-30.33-15.66-1.71-.44-3.45-.65-5.19-.65-2.83 0-5.64.57-8.28 1.69-14.43 6.13-28.87 12.27-43.3 18.41-14.43-6.14-28.86-12.28-43.3-18.41a21.1 21.1 0 0 0-8.28-1.69c-1.74 0-3.48.22-5.19.65-10.94 2.8-21.45 8.33-30.32 15.66-8.88 7.34-16.13 16.48-20.49 26.58-3.24 7.52-4.83 15.66-4.83 23.8s1.55 16.08 4.61 23.5 7.62 14.22 13.66 19.75c.57.52 1.15 1.03 1.74 1.52-12.02-5.89-22.5-13.24-31.07-22.08-7.85-8.1-14.11-17.46-18.5-28.12-4.38-10.67-6.89-22.66-7.21-36.06-.02-.91-.03-1.81-.03-2.72 0-17.93 4.2-35.14 11.78-50.89 11.37-23.62 30.37-43.96 54.2-58.38 7.31-4.42 15.06-8.29 23.19-11.52.02 0 .04-.01.05-.02 18.37-7.3 38.62-11.39 59.83-11.39 41.26 0 79.25 14.04 106.86 36.44 13.81 11.2 25.01 24.48 32.76 39.13s12.04 30.65 12.04 47.35Zm18.66-59.29c-9.98 1.64-19.95 3.27-29.93 4.91-12.24-20.58-31.08-38.15-54.08-50.85-7.68-4.24-15.82-7.94-24.34-11.03-.04-8.62-.09-17.82-.13-26.16 40.8-20.01 82.5-41.32 123.3-61.37.3.23.61.45.92.66-5.15 48.25-10.6 95.54-15.74 143.84m34.18-148.88a12.74 12.74 0 0 1-9.05 3.75c-2.25 0-4.35-.58-6.19-1.59h-.01c-1.05-.58-2.01-1.3-2.85-2.15a12.74 12.74 0 0 1-3.75-9.05c0-3.54 1.43-6.73 3.75-9.05a12.74 12.74 0 0 1 9.05-3.75c3.54 0 6.73 1.43 9.05 3.75a12.74 12.74 0 0 1 3.75 9.05c0 3.54-1.43 6.73-3.75 9.05Z" class="cls-9"/><path d="M210.26 349.08c2.09 1.09 4.55 1.7 7.17 1.7 3.5 0 6.71-1.09 9.13-2.95 1.21-.93 2.22-2.07 2.93-3.38.72-1.3 1.13-2.79 1.13-4.34s-.41-3.03-1.13-4.34c-1.08-1.96-2.8-3.53-4.88-4.62-2.09-1.09-4.55-1.7-7.17-1.7-3.5 0-6.71 1.09-9.13 2.95-1.21.93-2.22 2.07-2.93 3.38a8.97 8.97 0 0 0-1.13 4.34c0 1.55.41 3.03 1.13 4.34 1.08 1.96 2.8 3.53 4.88 4.62M209 337.76c.61-1.13 1.71-2.18 3.17-2.94 1.46-.77 3.28-1.23 5.26-1.23 2.64 0 4.99.84 6.6 2.09.81.62 1.43 1.34 1.83 2.09.41.75.62 1.53.62 2.36 0 .82-.21 1.6-.62 2.36-.61 1.12-1.71 2.18-3.17 2.94-1.46.77-3.28 1.24-5.26 1.23-2.64 0-4.99-.84-6.6-2.09-.81-.62-1.42-1.34-1.83-2.09s-.62-1.53-.62-2.36.21-1.61.62-2.36" class="cls-3"/><path d="M233.42 349.66c-1.11-.26-2.22.43-2.48 1.54-.7 3.04-2.56 5.81-5.07 7.82s-5.62 3.21-8.74 3.23h-.09c-3.1 0-6.22-1.17-8.74-3.14s-4.4-4.71-5.14-7.72a2.063 2.063 0 0 0-2.5-1.51 2.063 2.063 0 0 0-1.51 2.5c1 4.02 3.43 7.5 6.61 9.98 3.18 2.49 7.14 4.01 11.28 4.02h.11c4.16-.03 8.12-1.6 11.29-4.14 3.17-2.53 5.57-6.06 6.52-10.11.26-1.11-.43-2.22-1.54-2.48M163.56 304.23c-.16-.21-.44-.43-.83-.61-.38-.18-.78-.37-1.19-.57l-12.51-7.29c-.47-.31-.93-.63-1.4-.96-5.71-3.99-10.63-8.02-13.91-10.79-1.35-1.13-2.29-.32-1.27 1.16 1.24 1.79 2.89 3.98 5.02 6.26.66.71 1.37 1.43 2.12 2.15-1.08 1.79-1.99 3.86-2.71 6.14-2.03-1.96-3.72-3.83-4.95-5.39-.88-1.09-2.01-.56-1.5.84.61 1.69 1.57 3.77 3.03 5.91.67 1 1.46 2.01 2.34 3-.42 2.33-.66 4.79-.67 7.36-.04 13.86 6.53 25.12 14.67 25.14s14.77-11.2 14.81-25.06c0-2.42-.19-4.77-.56-6.98l-.51-.3ZM301.18 294.33c-1.23 1.56-2.92 3.43-4.95 5.39-.72-2.28-1.63-4.34-2.71-6.14.75-.72 1.46-1.44 2.12-2.15 2.13-2.28 3.78-4.47 5.02-6.26 1.02-1.48.08-2.29-1.27-1.16-3.28 2.77-8.19 6.81-13.91 10.79-.47.33-.94.64-1.4.96l-12.5 7.29c-.41.2-.81.39-1.19.57-.39.19-.67.4-.83.61l-.51.3c-.37 2.22-.57 4.56-.56 6.98.04 13.86 6.67 25.08 14.81 25.06s14.71-11.28 14.67-25.14c0-2.56-.24-5.03-.67-7.35.89-.99 1.67-2 2.34-3 1.46-2.14 2.42-4.22 3.03-5.91.51-1.4-.62-1.94-1.5-.84" class="cls-3"/><path d="M245.68 190.18c-6.19-5.51-14.6-9.21-24.02-10.26-2.44-.27-4.94-.37-7.49-.26-10.29.4-19.59 3.89-26.59 9.36-6.99 5.46-11.7 12.96-12.63 21.32-.15 1.36-.2 2.73-.15 4.13.28 7.09 3.27 13.55 8.06 18.72 4.5 4.85 10.59 8.57 17.58 10.76l-.44 3.98c-.05.47.1.95.41 1.3.31.36.77.56 1.24.57l10.11.09 7.68.07 10.23.1c.9 0 1.65-.7 1.7-1.6l.26-5.3c6.46-2.37 12.06-6.03 16.27-10.63 4.45-4.85 7.37-10.74 8.08-17.12.15-1.36.2-2.74.15-4.13-.32-8.22-4.28-15.58-10.46-21.08m6.96 24.84c-.62 5.59-3.18 10.82-7.22 15.22-4.03 4.4-9.54 7.94-15.96 10.12h-.02c-.07.02-.13.06-.19.09-.04.02-.08.03-.12.06-.05.03-.09.06-.13.1-.04.03-.09.06-.13.1-.04.03-.07.07-.1.11-.04.04-.08.08-.12.13-.03.05-.06.1-.09.14s-.06.09-.08.13-.04.09-.05.14c-.02.06-.05.11-.06.17-.01.04-.01.08-.02.11-.01.07-.03.14-.03.22v.02l-.23 4.79-6.84-.06.45-7.77c.05-.93-.66-1.73-1.58-1.78-.93-.05-1.73.66-1.78 1.58l-.46 7.94-4.31-.04.5-8.55c.05-.93-.66-1.73-1.58-1.78a1.68 1.68 0 0 0-1.78 1.58l-.5 8.71-6.64-.06.39-3.5v-.37c0-.06-.02-.11-.03-.17-.01-.05-.02-.11-.04-.16l-.06-.15c-.02-.05-.04-.1-.07-.15s-.06-.09-.09-.13-.06-.09-.09-.13l-.12-.12c-.04-.04-.07-.08-.11-.11s-.09-.06-.13-.09c-.05-.03-.09-.06-.14-.09-.04-.02-.09-.04-.14-.06-.06-.02-.11-.05-.17-.07-.01 0-.02 0-.03-.01-7.03-1.95-13.07-5.57-17.39-10.23-4.32-4.67-6.92-10.35-7.16-16.56-.05-1.22 0-2.43.13-3.62.81-7.32 4.95-14.02 11.36-19.04 6.4-5 15.03-8.27 24.64-8.64 2.38-.09 4.72 0 6.98.25 8.77.98 16.54 4.43 22.15 9.43 5.61 5.01 9.05 11.5 9.33 18.7.05 1.22 0 2.43-.13 3.62Z" class="cls-9"/><path d="m235.78 205.72-.68-.6c-.37.74-.69 1.52-1.1 2.25a20.065 20.065 0 0 1-5.38 6.26c-.85.65-1.81 1.32-2.11 2.35-.33 1.14.27 2.32.89 3.33 1.18 1.94 2.53 3.84 4.36 5.19s4.22 2.1 6.42 1.52c2.69-.71 4.61-3.32 5.01-6.07s-.51-5.57-1.98-7.93-3.46-4.34-5.44-6.29M202.12 214.26c-1.65-.83-3.18-1.9-4.54-3.15-.68-.63-1.32-1.3-1.91-2.01-.53-.64-.99-1.34-1.5-2l-.56.72c-1.58 2.29-3.18 4.6-4.18 7.19s-1.38 5.53-.47 8.16 3.28 4.84 6.05 5.04c2.27.16 4.48-1.02 6.03-2.68 1.55-1.67 2.52-3.78 3.32-5.91.42-1.11.79-2.38.26-3.44-.48-.96-1.55-1.43-2.5-1.91" class="cls-9"/><path d="M311.88 437.38q.48.105.93.36c1.6.93 3.03 2.2 4.09 3.73 1.69 2.45 2.49 5.39 2.49 8.35 0 3.03-.84 6.12-2.38 8.73-1.51 2.54-3.6 4.67-6.02 6.35-2.4 1.66-5.14 2.88-7.95 3.64-2.42.65-4.93.97-7.44.97-2.93 0-5.86-.44-8.66-1.28-.18-.05-.35-.12-.51-.2a95 95 0 0 1-4.49 15.76h.08c1.45.17 2.56 1.25 2.79 2.69.25 1.58.38 3.18.38 4.78 0 3.67-.67 7.35-2.03 10.76 1.13.48 2.21 1.12 3.2 1.84 2.09 1.52 3.94 3.49 5.48 5.55 1.48 1.98 2.79 4.19 3.75 6.46 1.13 2.65 1.7 5.54 1.7 8.42 0 3.31-.74 6.62-2.22 9.59a22.9 22.9 0 0 1-5.15 6.81c-3.08 2.79-6.81 4.69-10.74 5.95-3.91 1.26-8.06 1.91-12.15 2.19-3.01.2-6.02.32-9.03.32-7.05 0-14.52-.63-21.3-2.63-3.35-.99-6.63-2.34-9.59-4.2-2.93-1.84-5.49-4.14-7.48-6.99a20.3 20.3 0 0 1-3.11-6.71c-.57-2.21-.77-4.48-.77-6.76 0-3.66.47-7.34.64-10.99.02-.39.03-.79.03-1.18 0-2.09-.25-4.23-.89-6.23-.48-1.49-1.19-2.91-2.23-4.09-1.03 1.18-1.74 2.6-2.23 4.09-.64 2-.89 4.14-.89 6.23 0 .39 0 .79.03 1.18.17 3.66.65 7.33.64 10.99 0 2.28-.2 4.55-.77 6.76-.63 2.44-1.66 4.64-3.11 6.71-1.99 2.84-4.54 5.14-7.47 6.99-4.46 2.81-9.7 4.48-14.85 5.46-5.26 1.01-10.7 1.37-16.05 1.37-3.01 0-6.02-.12-9.03-.32-5.42-.37-11.05-1.4-16.01-3.67-2.5-1.15-4.84-2.61-6.89-4.46a22.8 22.8 0 0 1-5.16-6.81c-1.47-2.96-2.22-6.28-2.22-9.59 0-2.88.56-5.77 1.69-8.42 1.29-3.03 3.23-6.04 5.42-8.5 1.15-1.29 2.42-2.49 3.82-3.51.99-.72 2.07-1.36 3.2-1.84-1.36-3.41-2.03-7.09-2.03-10.76 0-1.6.13-3.2.38-4.78a3.16 3.16 0 0 1 2.79-2.68h.08a95 95 0 0 1-4.49-15.75c-.16.08-.33.15-.51.2-2.8.84-5.73 1.28-8.66 1.28-2.51 0-5.02-.32-7.44-.97-2.82-.76-5.55-1.98-7.95-3.64-2.42-1.68-4.52-3.8-6.02-6.35-1.54-2.61-2.38-5.7-2.38-8.73 0-2.96.8-5.9 2.49-8.35 1.06-1.53 2.48-2.8 4.08-3.73q.45-.255.93-.36a21.4 21.4 0 0 1-1.85-7.69c-.02-.37-.03-.74-.03-1.12 0-2.93.55-5.83 1.51-8.59.95-2.75 2.3-5.36 3.93-7.77 2.52-3.74 5.67-7.01 9.03-10 .62-.55 1.33-.82 2.15-.81l18.02.11c1.39 0 2.57.86 3.02 2.17l7.78 22.75c.29.86.23 1.71-.19 2.52s-1.08 1.35-1.95 1.6a11.146 11.146 0 0 0-8.04 10.72s1.17 5.8 3.27 7.9 4.93 3.27 7.9 3.27 5.8-1.17 7.9-3.27 3.27-4.93 3.27-7.9c0-2.67-.94-5.22-2.68-7.25-.66-.77-.91-1.72-.71-2.72s.79-1.78 1.7-2.24c8.52-4.31 17.05-8.59 25.6-12.84 4.57-2.27 9.14-4.53 13.74-6.72 1.51-.72 3.03-1.44 4.57-2.12.36-.16.73-.32 1.1-.47.94-.39 1.9-.33 2.79.16.54.3 1.08.61 1.62.92 5.82 3.34 11.61 6.75 17.4 10.15 5.64 3.31 11.28 6.64 16.92 9.96.9.53 1.44 1.37 1.56 2.4s-.22 1.97-.97 2.69c-.06.06-.13.11-.18.17-2.1 2.1-3.27 4.93-3.27 7.9s1.17 5.8 3.27 7.9 4.93 3.27 7.9 3.27 5.8-1.17 7.9-3.27 3.27-4.93 3.27-7.9-1.17-5.8-3.27-7.9a11.15 11.15 0 0 0-5.17-2.93 3.05 3.05 0 0 1-2.01-1.54c-.45-.8-.54-1.65-.28-2.52l6.98-22.88a3.17 3.17 0 0 1 3.19-2.27l26.77.95c.8.03 1.47.3 2.06.84 3.02 2.77 5.84 5.78 8.13 9.18 1.62 2.41 2.97 5.03 3.93 7.77.96 2.76 1.51 5.66 1.51 8.58 0 .37 0 .75-.03 1.12-.13 2.63-.76 5.28-1.85 7.69" class="cls-1"/><path d="M289.25 511.32c-1.41-1.89-3.07-3.62-4.79-4.87-1.15-.84-2.32-1.46-3.46-1.81-.56-.18-1.03-.59-1.27-1.12-.24-.54-.24-1.16 0-1.69 1.49-3.29 2.23-6.92 2.23-10.57 0-1.43-.12-2.86-.34-4.27-.49 1.17-1 2.34-1.54 3.49a2.06 2.06 0 0 1-2.74.99 2.07 2.07 0 0 1-.99-2.75c5.73-12.19 8.63-25.68 8.63-39.17 0-10.88-1.89-21.76-5.68-31.94a2.05 2.05 0 0 1 1.21-2.65c1.07-.4 2.26.14 2.65 1.21 3.97 10.66 5.94 22.02 5.94 33.38 0 5.22-.42 10.45-1.25 15.6 2.51.75 5.13 1.15 7.74 1.15 2.23 0 4.46-.28 6.61-.86 2.48-.66 4.88-1.74 6.96-3.18s3.84-3.23 5.08-5.34c1.25-2.11 1.93-4.63 1.93-7.09 0-2.38-.63-4.66-1.92-6.53-.77-1.12-1.83-2.07-3.05-2.78-1.52 2.34-3.51 4.38-5.98 5.84-.98.58-2.25.25-2.83-.73s-.26-2.25.73-2.83c2.31-1.36 4.15-3.44 5.43-5.91 1.17-2.26 1.86-4.82 1.98-7.36.02-.32.02-.64.02-.97 0-2.53-.48-5.07-1.33-7.53s-2.08-4.84-3.55-7.03c-2.12-3.15-4.75-5.97-7.63-8.61l-26.77-.94-6.98 22.88c2.56.64 4.85 1.97 6.65 3.78 2.6 2.6 4.21 6.2 4.21 10.17 0 3.96-1.61 7.57-4.21 10.17s-6.2 4.21-10.17 4.21-7.57-1.61-10.17-4.21-4.21-6.2-4.21-10.17 1.61-7.57 4.21-10.17c.08-.08.16-.15.24-.22-4.75-2.81-10.96-6.46-16.91-9.96-7.13-4.19-13.9-8.15-17.37-10.13-.66-.38-1.2-.68-1.59-.9-.27.11-.62.26-1.02.44-1.1.49-2.65 1.21-4.49 2.09-3.68 1.76-8.58 4.16-13.7 6.7-10 4.96-20.9 10.46-25.58 12.83 2.14 2.51 3.45 5.78 3.44 9.33 0 3.96-1.61 7.57-4.21 10.17s-6.2 4.21-10.17 4.21-7.57-1.61-10.17-4.21-4.21-6.2-4.21-10.17c0-3.96 1.61-7.57 4.21-10.17a14.4 14.4 0 0 1 6.15-3.64l-7.78-22.75-18.02-.11c-3.22 2.86-6.17 5.93-8.5 9.39-1.48 2.19-2.7 4.57-3.55 7.03s-1.33 5-1.33 7.53a17.98 17.98 0 0 0 2 8.32c1.28 2.47 3.13 4.55 5.43 5.91.98.58 1.31 1.85.73 2.83a2.07 2.07 0 0 1-2.83.73c-2.47-1.46-4.47-3.5-5.98-5.84-1.22.71-2.28 1.66-3.05 2.78-1.29 1.86-1.92 4.15-1.92 6.53 0 2.45.68 4.98 1.93 7.09s3 3.9 5.08 5.34 4.48 2.51 6.96 3.18c2.15.58 4.37.86 6.61.86 2.61 0 5.23-.39 7.74-1.15a98 98 0 0 1-1.25-15.6c0-11.36 1.97-22.72 5.94-33.38.4-1.07 1.59-1.61 2.65-1.21 1.07.4 1.61 1.59 1.21 2.65-3.79 10.18-5.68 21.06-5.68 31.94 0 13.49 2.9 26.98 8.63 39.17a2.068 2.068 0 0 1-3.74 1.76c-.54-1.15-1.05-2.32-1.54-3.49-.22 1.41-.34 2.85-.34 4.28 0 3.65.74 7.28 2.23 10.57.24.54.24 1.16 0 1.69-.24.54-.7.95-1.27 1.12-1.13.35-2.31.98-3.46 1.81s-2.27 1.88-3.31 3.05c-2.08 2.33-3.81 5.15-4.86 7.63-.96 2.24-1.44 4.7-1.44 7.16 0 2.83.64 5.65 1.88 8.16a19.7 19.7 0 0 0 4.43 5.86c1.77 1.6 3.82 2.89 6.07 3.92 4.49 2.06 9.76 3.04 14.89 3.39 2.72.19 5.7.32 8.81.32 5.03 0 10.37-.34 15.44-1.31s9.84-2.57 13.74-5.03c2.6-1.64 4.82-3.64 6.55-6.11 1.33-1.9 2.13-3.76 2.63-5.67.49-1.91.66-3.88.66-5.96 0-3.34-.46-6.94-.64-10.84-.02-.44-.03-.89-.03-1.34 0-2.39.29-4.87 1.05-7.21.75-2.34 1.99-4.57 3.91-6.28.02-.02.05-.03.07-.05.06-.05.12-.09.18-.13a1 1 0 0 1 .17-.1c.06-.03.12-.06.19-.09.06-.02.12-.05.19-.07.06-.02.13-.03.19-.04l.2-.03h.4c.07 0 .13.02.2.03.06.01.13.03.19.04.06.02.13.04.19.07s.13.05.19.09a2.028 2.028 0 0 1 .35.23c.02.02.05.03.07.05 1.92 1.71 3.16 3.94 3.91 6.28s1.05 4.83 1.05 7.21c0 .45-.01.89-.03 1.33-.18 3.91-.64 7.51-.64 10.84 0 2.08.17 4.05.67 5.96.49 1.91 1.3 3.77 2.63 5.67 1.73 2.47 3.95 4.47 6.55 6.11s5.59 2.89 8.79 3.84c6.41 1.89 13.69 2.5 20.39 2.5 3.11 0 6.09-.13 8.81-.32 3.85-.26 7.77-.88 11.39-2.04s6.91-2.86 9.57-5.27c1.77-1.61 3.27-3.52 4.43-5.86 1.25-2.51 1.88-5.33 1.88-8.16 0-2.46-.48-4.92-1.44-7.16-.79-1.86-1.96-3.91-3.37-5.8" class="cls-8"/><path d="M288.61 296.75a139 139 0 0 1-4.55 3.22c-.06.04-.11.07-.18.11l-12.14 7.07c-.08.04-.14.08-.22.12-.3.14-.59.28-.89.42q-.315 2.43-.3 4.89c.01 4.98 1 10.43 3.38 14.85 1.39 2.58 3.77 5.66 6.86 6.19.3.05.61.08.92.08s.62-.03.92-.08c3.08-.54 5.45-3.64 6.82-6.23 2.35-4.44 3.31-9.89 3.3-14.87 0-2.2-.2-4.41-.59-6.57-.14-.76-.02-1.48.34-2.12-.61-.39-1.05-.99-1.28-1.72-.57-1.83-1.33-3.62-2.32-5.27-.02-.03-.03-.06-.05-.09m-79.94 40.94c-.45.82-.7 1.73-.7 2.67s.25 1.85.7 2.67c.76 1.39 2.02 2.46 3.41 3.18 1.68.88 3.58 1.29 5.47 1.29 2.44 0 4.95-.69 6.9-2.19.8-.62 1.5-1.38 1.99-2.28.45-.82.7-1.73.7-2.67s-.25-1.85-.7-2.66c-.76-1.39-2.02-2.46-3.41-3.18-1.68-.88-3.58-1.29-5.47-1.29-2.44 0-4.95.69-6.9 2.19-.8.62-1.5 1.38-1.99 2.28Zm-45.88-30c-.3-.14-.6-.28-.89-.42-.08-.04-.14-.07-.22-.12l-12.14-7.07c-.06-.04-.12-.07-.18-.11-.47-.32-.94-.63-1.4-.96-1.06-.74-2.11-1.49-3.15-2.26-.02.03-.03.06-.05.09-.99 1.64-1.75 3.44-2.32 5.27-.23.74-.68 1.33-1.28 1.72.36.64.47 1.36.34 2.12-.4 2.16-.59 4.37-.59 6.57-.01 4.98.94 10.44 3.29 14.87 1.37 2.59 3.74 5.68 6.82 6.23.3.05.61.08.92.08s.62-.02.92-.08c3.08-.53 5.47-3.61 6.86-6.19 2.38-4.42 3.36-9.87 3.38-14.85 0-1.63-.09-3.27-.3-4.89Zm6.06 76.67c-8.37-1.45-16.76-3.42-24.69-6.49-7.87-3.04-15.23-7.16-21.47-12.88-5.72-5.24-10.11-11.73-13.07-18.89-2.93-7.11-4.41-14.82-4.41-22.51s1.53-15.61 4.62-22.79c4.27-9.91 11.38-18.66 19.67-25.51 8.42-6.96 18.52-12.34 29.13-15.05 1.58-.4 3.21-.61 4.84-.61 2.65 0 5.28.54 7.73 1.58 14.11 6 28.23 12 42.34 18 14.11-6 28.23-12 42.34-18 2.44-1.04 5.07-1.58 7.72-1.58 1.63 0 3.26.2 4.84.61 10.61 2.71 20.7 8.09 29.13 15.05 8.28 6.84 15.4 15.6 19.67 25.5 3.09 7.17 4.62 14.98 4.62 22.79s-1.48 15.4-4.41 22.51c-2.95 7.16-7.35 13.65-13.06 18.89-7.53 6.9-16.68 11.39-26.35 14.46-.03.01-.06.02-.1.03-20.29 5.74-41.76 8-62.81 8.27q-1.905.03-3.81.03c-14.05 0-28.16-1.01-42.01-3.35-.14-.02-.29-.05-.43-.07h-.01Z" class="cls-1"/><path d="M295.5 277.79c-8.18-6.76-17.89-11.86-27.88-14.41-1.33-.34-2.69-.51-4.04-.51-2.21 0-4.41.45-6.47 1.32-14.27 6.06-28.55 12.13-42.81 18.2h-.02c-.08.03-.17.06-.25.08-.04.01-.08.03-.12.04-.08.02-.15.02-.23.02-.05 0-.11.02-.16.02s-.11-.01-.16-.02c-.08 0-.15 0-.23-.02-.04 0-.08-.03-.13-.04-.09-.02-.17-.04-.25-.08h-.02c-14.27-6.07-28.54-12.14-42.81-18.2-2.06-.88-4.26-1.32-6.47-1.32-1.36 0-2.71.17-4.04.51-9.99 2.55-19.7 7.65-27.88 14.41s-14.83 15.18-18.76 24.3c-2.92 6.76-4.36 14.14-4.36 21.51 0 7.29 1.41 14.59 4.17 21.29s6.87 12.8 12.27 17.74c5.89 5.39 12.86 9.32 20.46 12.25 7.59 2.94 15.81 4.88 24.11 6.32h.01c.13.03.26.05.39.07 13.09 2.21 27.01 3.3 41.48 3.3 1.25 0 2.51 0 3.77-.02 23.6-.3 44.24-3.14 61.97-8.15 9.42-2.99 18.08-7.28 25.16-13.77 5.4-4.94 9.51-11.05 12.27-17.74 2.76-6.7 4.17-13.99 4.17-21.29 0-7.38-1.44-14.75-4.36-21.51-3.93-9.12-10.58-17.54-18.76-24.3m-143.58 59.13c-7.9-.02-14.28-10.95-14.24-24.4 0-2.49.23-4.88.65-7.14-.86-.96-1.62-1.95-2.28-2.91a25.6 25.6 0 0 1-2.94-5.73c-.5-1.36.6-1.88 1.46-.82 1.19 1.52 2.83 3.33 4.8 5.24.7-2.21 1.59-4.22 2.63-5.96-.73-.7-1.42-1.4-2.06-2.09a53 53 0 0 1-4.87-6.08c-.99-1.43-.08-2.22 1.23-1.13 3.19 2.69 7.95 6.61 13.5 10.48.45.32.91.63 1.36.93l12.14 7.07c.4.19.79.38 1.16.55.38.18.65.39.81.6l.5.29c.36 2.15.55 4.43.55 6.78-.04 13.46-6.48 24.35-14.38 24.32Zm53.93-.77c.69-1.27 1.67-2.37 2.85-3.28 2.35-1.81 5.46-2.86 8.86-2.86 2.55 0 4.94.6 6.96 1.65 2.02 1.06 3.7 2.58 4.74 4.49.69 1.27 1.1 2.71 1.09 4.21 0 1.5-.4 2.94-1.09 4.21s-1.67 2.37-2.85 3.28c-2.35 1.81-5.46 2.86-8.86 2.86-2.55 0-4.94-.6-6.96-1.65-2.02-1.06-3.7-2.58-4.74-4.49-.69-1.27-1.1-2.71-1.09-4.21 0-1.5.4-2.94 1.09-4.21m28.72 15.88c-.92 3.93-3.25 7.35-6.32 9.81s-6.92 3.98-10.96 4.02h-.11c-4.02 0-7.86-1.49-10.95-3.9-3.08-2.42-5.45-5.79-6.41-9.69a2 2 0 0 1 1.47-2.42c1.07-.26 2.16.39 2.42 1.46.72 2.93 2.55 5.59 4.99 7.5s5.47 3.05 8.48 3.05h.08c3.03-.02 6.05-1.19 8.49-3.14 2.43-1.95 4.24-4.64 4.92-7.59a2.002 2.002 0 1 1 3.9.91Zm65.74-55.3c-.59 1.64-1.52 3.65-2.94 5.73-.65.97-1.42 1.95-2.28 2.91.41 2.26.64 4.65.65 7.14.04 13.45-6.34 24.38-14.24 24.4s-14.34-10.87-14.38-24.32c0-2.35.19-4.63.55-6.78l.49-.29c.16-.21.43-.42.81-.6.37-.17.76-.36 1.16-.55l12.14-7.07c.45-.3.91-.61 1.36-.93 5.55-3.87 10.32-7.78 13.5-10.48 1.31-1.1 2.23-.31 1.23 1.13-1.2 1.74-2.81 3.86-4.88 6.08-.64.69-1.33 1.39-2.06 2.09 1.04 1.74 1.93 3.75 2.63 5.96 1.97-1.9 3.61-3.72 4.8-5.24.86-1.06 1.95-.54 1.45.82Z" class="cls-8"/><path d="M296.7 475.7c.13-.09.25-.22.37-.36-.49.02-.99.04-1.48.04-.35 0-.69 0-1.04-.02.54.66 1.39.92 2.16.34M314.82 410.95h-.35c.1.15.19.32.29.49l.17-.23c-.03-.09-.07-.17-.1-.26" class="cls-5"/><path d="M166.77 429.04c3.95-2 21.49-10.87 34.12-17.06 4.77-2.34 8.83-4.29 11.24-5.37.65-.29 1.17-.51 1.6-.68.22-.09.41-.16.62-.22.11-.03.22-.06.4-.09.09-.01.2-.03.37-.03.15 0 .35 0 .69.11h-.01.02c.15.05.2.08.27.11.06.03.11.05.16.08.1.05.21.11.34.18q.39.21 1.02.57c.84.47 2 1.14 3.4 1.95 2.81 1.63 6.59 3.84 10.73 6.26 7.82 4.58 16.87 9.92 22.84 13.44a14.4 14.4 0 0 1 5.52-1.38l7.69-25.19c.27-.89 1.11-1.49 2.05-1.46l48.99 1.73q.09-.585.24-1.17l-27.46-23.37c-3.05 1.1-6.19 2.14-9.43 3.1-.75.22-1.52.44-2.29.65-.02 0-.05.02-.07.02h-.04c-18.67 5.27-40.26 8.21-64.84 8.53-1.31.02-2.63.02-3.93.02-14.79 0-29.04-1.09-42.51-3.31h-.03c-.43-.07-.86-.14-1.3-.22-.08-.02-.16-.03-.24-.04-7.09-1.22-13.97-2.75-20.57-4.6-6.21-1.75-12.19-3.78-17.91-6.1l-30.54 23.72c.17.35.33.7.48 1.06l30.3.18 20.28.12c.88 0 1.66.56 1.94 1.4l8.52 24.9c2.71.03 5.24.8 7.4 2.13M105.2 182.59c13.03-11.6 28.34-21.16 45.23-28.06.04-7.32.08-14.86.12-21.8-40.8-20.01-82.5-41.32-123.31-61.37-.3.23-.61.45-.93.67 5.15 48.25 10.61 95.53 15.74 143.84l32.52 5.34c7.67-14.38 18.09-27.44 30.63-38.61" class="cls-4"/><path d="M16.93 70.74c3.54 0 6.73-1.43 9.05-3.75a12.74 12.74 0 0 0 3.75-9.05c0-3.54-1.43-6.73-3.75-9.05a12.74 12.74 0 0 0-9.05-3.75c-3.54 0-6.73 1.43-9.05 3.75a12.74 12.74 0 0 0-3.75 9.05c0 3.54 1.43 6.73 3.75 9.05a12.74 12.74 0 0 0 9.05 3.75M275.11 153.1c8.52 3.09 16.67 6.79 24.34 11.03 23.01 12.71 41.84 30.27 54.08 50.85 9.98-1.64 19.95-3.27 29.93-4.91 5.13-48.31 10.59-95.6 15.74-143.84-.32-.21-.62-.43-.92-.66-40.81 20.06-82.5 41.36-123.3 61.37.05 8.34.09 17.54.13 26.16M402.39 63.34h.01c1.83 1.01 3.94 1.59 6.19 1.59 3.54 0 6.73-1.43 9.05-3.75a12.74 12.74 0 0 0 3.75-9.05c0-3.54-1.43-6.73-3.75-9.05a12.74 12.74 0 0 0-9.05-3.75c-3.54 0-6.73 1.43-9.06 3.75a12.74 12.74 0 0 0-3.75 9.05c0 3.54 1.43 6.73 3.75 9.05.85.84 1.81 1.56 2.85 2.15" class="cls-4"/><path d="M365.55 269.24h2.06Zv-.62c0-16.7-4.3-32.7-12.04-47.35-7.75-14.65-18.96-27.93-32.76-39.13-27.61-22.4-65.6-36.44-106.86-36.44-21.21 0-41.47 4.08-59.83 11.39-.02 0-.04.01-.05.02-8.13 3.24-15.89 7.1-23.19 11.52-23.82 14.42-42.83 34.76-54.2 58.39-7.58 15.75-11.78 32.96-11.78 50.89 0 .91.01 1.81.03 2.72.32 13.4 2.83 25.39 7.21 36.06s10.64 20.02 18.5 28.13c8.56 8.84 19.05 16.19 31.07 22.08-.59-.5-1.17-1-1.74-1.52-6.04-5.53-10.61-12.33-13.66-19.75-3.06-7.42-4.61-15.46-4.61-23.5 0-8.14 1.59-16.28 4.83-23.8 4.36-10.1 11.62-19.24 20.49-26.58 8.88-7.33 19.39-12.86 30.32-15.66 1.71-.44 3.45-.65 5.19-.65 2.83 0 5.64.57 8.28 1.69 14.43 6.13 28.86 12.27 43.3 18.41 14.43-6.14 28.86-12.28 43.3-18.41a21.1 21.1 0 0 1 8.27-1.69c1.74 0 3.48.22 5.19.65 10.94 2.8 21.45 8.33 30.32 15.66 8.88 7.34 16.13 16.48 20.49 26.58 3.24 7.51 4.83 15.66 4.83 23.8 0 8.04-1.55 16.08-4.61 23.5-3.05 7.39-7.6 14.18-13.61 19.7 11.32-5.86 20.92-12.92 28.84-21.04a96 96 0 0 0 19.07-28.18c6.18-13.92 9.32-29.63 9.43-46.84m-108.81-54.59c-.71 6.38-3.63 12.27-8.09 17.12-4.22 4.59-9.82 8.26-16.27 10.63l-.26 5.3c-.04.9-.79 1.61-1.7 1.6l-10.23-.1-7.68-.07-10.11-.09c-.47 0-.93-.21-1.24-.57s-.47-.83-.41-1.3l.44-3.98c-6.99-2.18-13.08-5.9-17.58-10.76-4.79-5.17-7.78-11.63-8.06-18.72-.05-1.39 0-2.77.15-4.13.93-8.36 5.64-15.85 12.63-21.32s16.29-8.95 26.59-9.36c2.55-.1 5.05 0 7.49.26 9.42 1.05 17.83 4.75 24.02 10.26 6.18 5.5 10.14 12.86 10.46 21.08.05 1.39 0 2.77-.15 4.13ZM329.8 455.58c.77.78 1.55 1.55 2.34 2.33 1.81 1.77 3.67 3.58 5.42 5.66.46.54.61 1.27.39 1.95-1.34 4.24-3.82 8.53-6.96 12.45-3.15 3.92-6.97 7.46-11.06 10.14-2.73 1.78-5.57 3.18-8.45 4.02-3.35.98-6.73 1.51-10.05 1.51-3.82 0-7.55-.71-10.99-2.27-1.56-.71-3.06-1.6-4.47-2.66.07.85.11 1.7.11 2.55 0 1.96-.19 3.92-.57 5.85 7.31 3.74 15.55 5.68 23.77 5.68 4.37 0 8.74-.55 12.97-1.65 6.34-1.66 12.48-4.38 17.88-8.05s10.06-8.3 13.49-13.77c.32-.52.86-.87 1.47-.95s1.21.1 1.67.51c1.34 1.21 3.31 2.77 5.36 4.35.77.59 1.54 1.19 2.31 1.78-.88-10.64-2.39-20.39-4.06-31.78-9.95.81-20.56 1.57-30.58 2.37" class="cls-4"/><path d="M159.57 145.69v.21c.27-.09.54-.17.81-.26-.27.01-.54.03-.8.05" style="stroke-width:0;fill:#9500ff"/><path d="M340.24 397.08c-1.86-1.86-4.41-3-7.25-3s-5.39 1.14-7.25 3-3 4.41-3 7.25 1.14 5.39 3 7.25 4.41 3 7.25 3 5.39-1.14 7.25-3 3-4.41 3-7.25-1.14-5.39-3-7.25M224.04 335.67c-1.61-1.25-3.96-2.09-6.6-2.09-1.98 0-3.8.47-5.26 1.23-1.47.76-2.56 1.82-3.18 2.94-.41.75-.62 1.53-.62 2.36 0 .82.21 1.6.62 2.36.41.75 1.03 1.47 1.84 2.09 1.61 1.25 3.96 2.09 6.6 2.09 1.98 0 3.8-.47 5.26-1.23 1.47-.76 2.56-1.82 3.17-2.94.41-.75.62-1.53.62-2.36s-.21-1.6-.62-2.36c-.41-.75-1.03-1.47-1.83-2.09M260.76 431.03c-2.84 0-5.39 1.14-7.25 3s-3 4.41-3 7.25 1.14 5.39 3 7.25 4.41 3 7.25 3 5.39-1.14 7.25-3 3-4.41 3-7.25-1.14-5.39-3-7.25-4.41-3-7.25-3M159.23 431.03c-2.84 0-5.39 1.14-7.25 3s-3 4.41-3 7.25 1.14 5.39 3 7.25 4.41 3 7.25 3 5.39-1.14 7.25-3 3-4.41 3-7.25-1.14-5.39-3-7.25-4.41-3-7.25-3M85 395.41c-2.84 0-5.39 1.14-7.25 3s-3 4.41-3 7.25 1.14 5.39 3 7.25 4.41 3 7.25 3 5.39-1.14 7.25-3 3-4.41 3-7.25-1.14-5.39-3-7.25-4.41-3-7.25-3M252.77 211.4c-.28-7.2-3.72-13.69-9.33-18.7-5.61-5-13.38-8.45-22.15-9.43-2.27-.25-4.6-.34-6.99-.25-9.61.37-18.25 3.64-24.64 8.64-6.4 5.01-10.54 11.72-11.36 19.04-.13 1.19-.18 2.4-.13 3.62.25 6.21 2.85 11.9 7.16 16.56 4.32 4.66 10.36 8.28 17.39 10.23.01 0 .02 0 .03.01.06.02.12.04.17.07.05.02.09.04.14.06.05.03.09.06.14.09s.09.06.13.09.08.07.11.11l.12.12c.03.04.06.09.09.13.03.05.06.09.09.13.03.05.05.1.07.15l.06.15c.02.05.02.1.04.16.01.06.03.11.03.17v.37l-.39 3.5 6.64.06.51-8.71c.05-.93.85-1.64 1.78-1.58.93.05 1.64.85 1.58 1.78l-.5 8.55 4.31.04.46-7.94c.05-.93.85-1.64 1.78-1.59s1.64.85 1.58 1.78l-.45 7.77 6.84.06.24-4.79v-.02c0-.07.02-.15.03-.22 0-.04 0-.08.02-.11.02-.06.04-.11.06-.17.02-.05.03-.1.05-.14.02-.05.05-.09.08-.13.03-.05.05-.1.09-.14.03-.05.08-.09.12-.13.03-.04.06-.07.1-.11s.09-.06.13-.1l.13-.1.12-.06c.06-.03.12-.06.19-.09h.02c6.43-2.17 11.93-5.72 15.96-10.12s6.6-9.62 7.22-15.22c.13-1.19.18-2.4.13-3.62m-48.4 8.22c-.8 2.13-1.77 4.24-3.32 5.91s-3.76 2.84-6.03 2.68c-2.77-.19-5.15-2.41-6.05-5.04-.91-2.63-.53-5.56.47-8.16 1-2.59 2.6-4.91 4.18-7.19l.56-.72c.5.66.96 1.36 1.5 2 .59.71 1.23 1.38 1.91 2.01 1.36 1.25 2.89 2.32 4.54 3.15.96.48 2.02.96 2.5 1.91.53 1.06.16 2.33-.26 3.44Zm38.84.33c-.4 2.75-2.33 5.37-5.01 6.07-2.2.58-4.59-.17-6.42-1.52s-3.18-3.25-4.36-5.19c-.62-1.01-1.22-2.19-.89-3.33.3-1.03 1.26-1.69 2.11-2.35a20.1 20.1 0 0 0 5.38-6.26c.4-.73.73-1.5 1.1-2.25l.68.6c1.98 1.95 3.98 3.93 5.45 6.29s2.38 5.18 1.98 7.93Z" class="cls-7"/></g></svg>