<svg xmlns="http://www.w3.org/2000/svg" id="svg1" width="642.667" height="664.467" viewBox="0 0 642.667 664.467"><g id="g1"><g id="group-R5"><path id="path2" d="M3219.29 4444.41s377.2-189.76 802.67-449.41c425.48-259.66 707.75-484.5 780.38-753.15 72.64-268.65-59.12-830.45-767.07-582.97 0 0-33.95-132.46 24.65-380.54 58.6-248.07 139.03-697.72 67.31-1057.37-71.71-359.638-199.16-545.001-293.37-719.911-94.2-174.899-42.38-376.868-193.2-449.918-150.81-73.051-466.69-104.97-556.29 264.281 0 0-447.19-19.063-718.35-14.492s-612.14 5.32-612.14 5.32S1676.75 11.23 1418.66.43c-258.09-10.79-386.81 179.39-394.82 493.101 0 0-352.766 466.028-353.524 984.739-.781 518.73 158.672 969.47 158.672 969.47l-36.718 210.6s-227.094-145.99-491.223-39.54c-264.129 106.47-404.449 419.6-210.95 769.51 193.524 349.92 428.341 440.96 759.993 637.32 331.62 196.39 658.54 404.88 658.54 404.88s-87.49 232.92 613.01 380.02c0 0-16.15 155.62 150.84 171.95 167 16.32 193.35-173.27 193.35-173.27s693.55 11.95 753.46-364.8" style="fill:#5e4144;fill-opacity:1;fill-rule:nonzero;stroke:none" transform="matrix(.13333 0 0 -.13333 0 664.467)"/><path id="path3" d="M2523.06 4212.81c230.95 5.09 594.62 144.57 597.53 242.91 2.91 98.33-219.39 224.21-450.81 246.99-231.46 22.77-273.27 30.68-283.02 83.41-9.76 52.7-22.42 74.08-58.88 100.64-36.46 26.54-103.68-2.62-110.17-70.34-6.46-67.71-12.73-83.38-85.63-94.72s-530.1-125.82-526.41-284.09c3.7-158.29 686.43-229.86 917.39-224.8" style="fill:#77454c;fill-opacity:1;fill-rule:nonzero;stroke:none" transform="matrix(.13333 0 0 -.13333 0 664.467)"/><path id="path4" d="M1538.76 4336.16s54.27-133 524.68-190.68c470.42-57.7 1025.37.26 1120.57 212.02 0 0 418.32-208.45 833.88-475.46 415.56-267.02 756.49-528.37 701.4-851.4-55.1-323.03-339.18-372.32-503.09-335.82-163.89 36.53-174.66 91.67-189.12 219.99-14.46 128.35-156.76 533.7-270.57 645.31-113.8 111.63-145.29 22.49-85.37-44.11 59.92-66.57 255.88-439.33 272.32-723.34 16.4-284.03-58.34-270.73 6.84-502.35 65.2-231.64 138.91-718.42 81.85-1088.44-57.04-370.001-308.31-634.771-329.12-774.591-20.81-139.84-54.52-304.359-185.62-314.488-131.06-10.11-295.88 17.687-326.63 167.097-30.73 149.422-56.35 157.922-102.67 117.391 0 0-476.84-.289-846.65-3.457-369.84-3.184-491.01.848-491.01.848s-10.25 35.019-51.61 33.601c-41.36-1.422-25.55-126.121-108.2-252.691-82.65-126.55-321.19-108.961-385.59 9.75-64.39 118.711-83.74 203.898-92.54 276.601-8.78 72.688-26.99 72.309-73.75 147.149-46.74 74.82-229.346 397.06-261.975 784.88-32.601 387.8 38.945 649.01 89.899 834.56 50.972 185.52 43.918 223.52 18.511 378.43-25.398 154.91 4.739 419.7 110.664 638.91 105.901 219.19 211.591 306.46 193.361 348.41-18.23 41.96-92.96-5.23-188.34-153.48-95.415-148.28-208.442-478.54-206.384-657.01 0 0-224.422-174.84-457.558-68.58-233.133 106.27-369.957 490.89-5.254 837.26 364.699 346.35 731.416 441.3 1207.076 783.69" style="fill:#f5f1b1;fill-opacity:1;fill-rule:nonzero;stroke:none" transform="matrix(.13333 0 0 -.13333 0 664.467)"/><path id="path5" d="M1667.94 3528.23c93.16 13.19 105.55-129.44 14.84-140.16-90.68-10.7-108 126.97-14.84 140.16" style="fill:#5e4144;fill-opacity:1;fill-rule:nonzero;stroke:none" transform="matrix(.13333 0 0 -.13333 0 664.467)"/><path id="path6" d="M3113.27 3528.23c93.17 13.19 105.55-129.44 14.85-140.16-90.69-10.7-108.01 126.97-14.85 140.16" style="fill:#5e4144;fill-opacity:1;fill-rule:nonzero;stroke:none" transform="matrix(.13333 0 0 -.13333 0 664.467)"/><path id="path7" d="M2447.91 3230.01s106.47 38.76 102.21 96.65c-4.26 57.88-72.81 41.54-133.86 48.67-61.08 7.1-142.93-13.75-129.58-58.76 13.35-45.03 91.39-78.86 91.39-78.86s-10.63-159.98-103.66-193.58c-93.04-33.62-164.94 4.26-151.64 60.52 13.31 56.25 62.96 64.18 44.58 90.94-18.35 26.77-90.53-14.82-108.93-79.25-18.4-64.42 33.36-129.24 121.62-147.31 88.29-18.06 183.63 32.23 221.89 108.65 0 0 60.4-117.41 191.37-125.05 130.98-7.65 163.82 94.72 159.43 138.36-4.37 43.63-57.72 99.2-98.36 102.23-40.66 3.03-51.93-40.37-21.91-57.65s85.59-75.65 2.82-123.24c-82.75-47.58-238.06 133.16-187.37 217.68" style="fill:#5e4144;fill-opacity:1;fill-rule:nonzero;stroke:none" transform="matrix(.13333 0 0 -.13333 0 664.467)"/><path id="path8" d="M2371.72 2573.2s239.25 257.87 512.66 231.17c273.4-26.68 473.58-252.74 421.06-529.15 0 0 71.93 32.15 93.95 2.17 22.02-29.97-103.01-160.75-262.11-192.83-159.11-32.11-329.69-17.28-339.44-163.15-9.75-145.89 215.37-222.98 391.45-201.06 176.05 21.91 316.95 141.15 348.13 89.14 31.18-52.04-71.45-108.01-186.33-148.28-114.87-40.29-325.13-66.32-472.76 5.52 0 0-419.6-386.82-528.6-360.89-109 25.9-404.05 233.23-492.45 311.31 0 0-218.18-15.58-343.99 23.91-125.83 39.47-280.53 114.5-252.95 160.29 27.56 45.79 105.83 1.51 243.74-57.68 137.94-59.21 389.87-51.89 466.25 78.37 76.35 130.27-5.71 216.9-159.27 245.57-153.56 28.64-304.45 70.86-366.41 115.39-61.98 44.54-39.91 94.34 19.09 85.78 0 0 7.15 297.98 184.79 420.71 177.63 122.74 449.72 133.06 723.19-116.29" style="fill:#5e4144;fill-opacity:1;fill-rule:nonzero;stroke:none" transform="matrix(.13333 0 0 -.13333 0 664.467)"/><path id="path9" d="M1954.11 1668.22s351.13-283.84 412-262.09c60.87 21.76 355.64 228.07 424.15 312.19 0 0-107.04 119.08-79.33 240.14 27.72 121.08 127.47 186.35 277.78 202.66s188.24 50.15 220.8 133.29c32.55 83.13-39.89 312.69-199.82 380.9-159.93 68.19-361.41 4.69-480.6-101.75-119.18-106.45-153.67-148.67-193.21-111.32-39.54 37.31-186.94 229.45-418.76 225.74-231.8-3.72-408.33-252.95-331.5-473.02 0 0 114.8-44.74 254.54-60.22 139.73-15.51 275.51-116.85 257.12-261.84-18.43-145.01-143.17-224.68-143.17-224.68" style="fill:#f18ebe;fill-opacity:1;fill-rule:nonzero;stroke:none" transform="matrix(.13333 0 0 -.13333 0 664.467)"/></g></g></svg>